<svg width="165" height="222" viewBox="0 0 165 222" fill="none" xmlns="http://www.w3.org/2000/svg">
<ellipse cx="82.5" cy="88" rx="82.5" ry="82" fill="#26C970" fill-opacity="0.63"/>
<ellipse cx="82.5" cy="88" rx="82.5" ry="82" fill="url(#paint0_linear_1_5)" fill-opacity="0.63"/>
<path d="M79.4844 101.594C79.4844 102.792 78.8333 103.938 77.5312 105.031C76.2812 106.125 74.6406 107.141 72.6094 108.078C70.6302 108.964 68.4167 109.797 65.9688 110.578C63.5729 111.307 61.2031 111.932 58.8594 112.453C56.5677 112.974 54.4583 113.365 52.5312 113.625C50.6042 113.938 49.1719 114.094 48.2344 114.094C46.4635 114.094 44.8229 113.885 43.3125 113.469C41.8542 113.052 40.5781 112.427 39.4844 111.594C38.3906 110.708 37.5312 109.589 36.9062 108.234C36.3333 106.88 36.0469 105.24 36.0469 103.312C36.0469 89.4062 36.099 75.5521 36.2031 61.75C36.3073 47.9479 36.3594 34.0417 36.3594 20.0312C36.3594 17.8438 36.3073 15.6823 36.2031 13.5469C36.099 11.4115 36.0469 9.25 36.0469 7.0625C36.0469 6.54167 36.0729 5.94271 36.125 5.26562C36.1771 4.53646 36.3073 3.88542 36.5156 3.3125C36.724 2.6875 37.0365 2.16667 37.4531 1.75C37.8698 1.33333 38.4427 1.125 39.1719 1.125C39.901 1.125 40.6562 1.22917 41.4375 1.4375C42.2708 1.64583 43.026 1.95833 43.7031 2.375C44.4323 2.79167 45.0573 3.3125 45.5781 3.9375C46.151 4.51042 46.5677 5.1875 46.8281 5.96875C47.0885 6.90625 47.1927 7.92188 47.1406 9.01562C47.1406 10.0573 47.1406 11.125 47.1406 12.2188C47.401 26.0729 47.5833 39.8229 47.6875 53.4688C47.8438 67.1146 47.9219 80.8646 47.9219 94.7188C47.9219 96.2812 47.9219 97.8438 47.9219 99.4062C47.974 100.969 48.0781 102.531 48.2344 104.094C49.6406 104.042 51.3594 103.807 53.3906 103.391C55.4219 102.974 57.4531 102.453 59.4844 101.828C61.5677 101.151 63.5208 100.396 65.3438 99.5625C67.1667 98.7292 68.599 97.8438 69.6406 96.9062C70.1094 96.4375 70.6042 95.9688 71.125 95.5C71.6458 94.9792 72.2969 94.7188 73.0781 94.7188C73.7552 94.7188 74.4583 94.9531 75.1875 95.4219C75.9688 95.8906 76.6719 96.4896 77.2969 97.2188C77.9219 97.8958 78.4427 98.625 78.8594 99.4062C79.276 100.188 79.4844 100.917 79.4844 101.594Z" fill="white"/>
<path d="M149.391 119.062C149.391 124.635 148.896 130.13 147.906 135.547C146.917 140.911 145.276 145.938 142.984 150.625C140.745 155.312 137.776 159.583 134.078 163.438C130.38 167.24 125.849 170.365 120.484 172.812C119.13 173.438 117.646 174.01 116.031 174.531C114.469 175.052 112.828 175.495 111.109 175.859C109.443 176.224 107.776 176.51 106.109 176.719C104.443 176.927 102.88 177.031 101.422 177.031C100.849 177.031 100.198 177.005 99.4688 176.953C98.7917 176.953 98.1406 176.849 97.5156 176.641C96.8906 176.484 96.3698 176.198 95.9531 175.781C95.5365 175.365 95.3281 174.792 95.3281 174.062C95.3281 173.438 95.4583 172.786 95.7188 172.109C95.9792 171.432 96.3177 170.781 96.7344 170.156C97.2031 169.531 97.6979 168.984 98.2188 168.516C98.7396 167.995 99.2865 167.604 99.8594 167.344C99.599 166.927 99.3385 165.755 99.0781 163.828C98.8698 161.901 98.6615 159.453 98.4531 156.484C98.2969 153.516 98.1406 150.208 97.9844 146.562C97.8281 142.865 97.6719 139.062 97.5156 135.156C97.4115 131.25 97.3073 127.37 97.2031 123.516C97.151 119.609 97.099 116.016 97.0469 112.734C96.9948 109.453 96.9427 106.615 96.8906 104.219C96.8906 101.771 96.8906 100 96.8906 98.9062C96.8906 94.0104 96.9688 89.1927 97.125 84.4531C97.2812 79.7135 97.3594 74.8958 97.3594 70C96.7865 70 96.2396 69.8438 95.7188 69.5312C95.25 69.2188 95.0156 68.75 95.0156 68.125C95.0156 67.2917 95.224 66.5365 95.6406 65.8594C96.0573 65.1302 96.5781 64.5052 97.2031 63.9844C97.8802 63.4635 98.6094 63.0729 99.3906 62.8125C100.224 62.5 101.005 62.3438 101.734 62.3438C102.464 62.3438 103.167 62.4219 103.844 62.5781C104.521 62.6823 105.224 62.8125 105.953 62.9688C112.88 64.6354 119.052 67.1615 124.469 70.5469C129.885 73.9323 134.417 78.0469 138.062 82.8906C141.76 87.7344 144.573 93.2031 146.5 99.2969C148.427 105.391 149.391 111.979 149.391 119.062ZM137.828 117.656C137.828 112.448 137.203 107.552 135.953 102.969C134.703 98.3333 132.828 94.1146 130.328 90.3125C127.88 86.4583 124.781 83.0729 121.031 80.1562C117.333 77.1875 113.036 74.7396 108.141 72.8125V73.125C108.141 86.5625 108.349 99.8958 108.766 113.125C109.234 126.302 109.911 139.583 110.797 152.969C110.953 155 111.083 157.031 111.188 159.062C111.344 161.042 111.578 163.021 111.891 165C116.786 163.385 120.901 160.885 124.234 157.5C127.568 154.115 130.224 150.26 132.203 145.938C134.234 141.562 135.667 136.927 136.5 132.031C137.385 127.083 137.828 122.292 137.828 117.656Z" fill="white"/>
<defs>
<linearGradient id="paint0_linear_1_5" x1="82.5" y1="6" x2="82.5" y2="170" gradientUnits="userSpaceOnUse">
<stop stop-color="#007BFF" stop-opacity="0"/>
<stop offset="1" stop-color="#007BFF"/>
</linearGradient>
</defs>
</svg>
